Coordinates
nRows=116
nColumns=2
inDegrees=yes
endheader
time	ankle_angle_r	
4.25	 -0.366938	
4.3125	 -0.404540	
4.375	 -0.289917	
4.4375	 -0.373659	
4.5	 -0.366211	
4.5625	 -0.342778	
4.625	 -0.432696	
4.6875	 -0.372932	
4.75	 -0.381470	
4.8125	 -0.396729	
4.875	 -0.296093	
4.9375	 -0.375475	
5	 -0.326247	
5.0625	 -0.314803	
5.125	 -0.432696	
5.1875	 -0.401996	
5.25	 -0.371297	
5.3125	 -0.416892	
5.375	 -0.325158	
5.4375	 -0.355493	
5.5	 -0.361851	
5.5625	 -0.339871	
5.625	 -0.453767	
5.6875	 -0.400543	
5.75	 -0.366211	
5.8125	 -0.359308	
5.875	 -0.338963	
5.9375	 -0.381470	
6	 -0.338600	
6.0625	 -0.335693	
6.125	 -0.330607	
6.1875	 -0.292278	
6.25	 -0.318255	
6.3125	 -0.377473	
6.375	 -0.257583	
6.4375	 -0.317165	
6.5	 -0.320435	
6.5625	 -0.320435	
6.625	 -0.364031	
6.6875	 -0.381470	
6.75	 -0.334240	
6.8125	 -0.411442	
6.875	 -0.336783	
6.9375	 -0.411624	
7	 -0.411987	
7.0625	 -0.351134	
7.125	 -0.427246	
7.1875	 -0.441415	
7.25	 -0.396729	
7.3125	 -0.429063	
7.375	 -0.366211	
7.4375	 -0.398000	
7.5	 -0.413441	
7.5625	 -0.369481	
7.625	 -0.430879	
7.6875	 -0.398727	
7.75	 -0.407628	
7.8125	 -0.455402	
7.875	 -0.363668	
7.9375	 -0.371661	
8	 -0.396729	
8.0625	 -0.320435	
8.125	 -0.399998	
8.1875	 -0.416892	
8.25	 -0.400362	
8.3125	 -0.385284	
8.375	 -0.305176	
8.4375	 -0.320435	
8.5	 -0.381470	
8.5625	 -0.350952	
8.625	 -0.370934	
8.6875	 -0.381470	
8.75	 -0.335693	
8.8125	 -0.366211	
8.875	 -0.335693	
8.9375	 -0.335693	
9	 -0.362578	
9.0625	 -0.335693	
9.125	 -0.372387	
9.1875	 -0.381470	
9.25	 -0.368391	
9.3125	 -0.372932	
9.375	 -0.328791	
9.4375	 -0.319345	
9.5	 -0.390189	
9.5625	 -0.365848	
9.625	 -0.411987	
9.6875	 -0.396365	
9.75	 -0.351679	
9.8125	 -0.395639	
9.875	 -0.381470	
9.9375	 -0.396729	
10	 -0.403268	
10.0625	 -0.372569	
10.125	 -0.439235	
10.1875	 -0.439235	
10.25	 -0.417800	
10.3125	 -0.427246	
10.375	 -0.377110	
10.4375	 -0.396184	
10.5	 -0.411987	
10.5625	 -0.381470	
10.625	 -0.448318	
10.6875	 -0.427246	
10.75	 -0.403268	
10.8125	 -0.442505	
10.875	 -0.366938	
10.9375	 -0.392914	
11	 -0.400362	
11.0625	 -0.378018	
11.125	 -0.439235	
11.1875	 -0.454676	
11.25	 -0.399635	
11.3125	 -0.427246	
11.375	 -0.381470	
11.4375	 -0.399090	
